<svg xmlns="http://www.w3.org/2000/svg" xmlns:xlink="http://www.w3.org/1999/xlink" width="16" height="16" viewBox="0 0 16 16"><defs><linearGradient id="c" x1="-834" x2="-826" y1="950.126" y2="950.126" gradientTransform="translate(146.997 243.258)" gradientUnits="userSpaceOnUse" xlink:href="#a"/><linearGradient id="a"><stop offset="0" stop-color="#fcd635"/><stop offset="1" stop-color="#f7a928"/></linearGradient><linearGradient id="d" x1="-689" x2="-677" y1="165.511" y2="165.511" gradientUnits="userSpaceOnUse" xlink:href="#b"/><linearGradient id="b"><stop offset="0" stop-color="#4b5d64"/><stop offset="1" stop-color="#3d4155"/></linearGradient></defs><g transform="translate(691 -1189.373)"><circle cx="-683.003" cy="1193.384" r="4" fill="url(#c)"/><path fill="url(#d)" d="m -686.49805,162.02148 c -1.38564,0 -2.50195,1.01745 -2.50195,2.28125 l 0,1.7168 0,2.47461 0.006,0.006 -0.006,0 a 0.5,0.5 0 0 0 0.14648,0.35352 A 0.5,0.5 0 0 0 -688.5,169 l 10.99414,0 0.006,-0.006 0,0.006 a 0.5,0.5 0 0 0 0.35352,-0.14648 A 0.5,0.5 0 0 0 -677,168.5 l 0,-2.00586 0,-0.47461 0,-1.7168 c 0,-1.2638 -1.11632,-2.28125 -2.50195,-2.28125 l -6.9961,0 z" transform="translate(0 1036.362)"/></g></svg>